<?xml version="1.0" standalone="no"?>
<!DOCTYPE svg PUBLIC "-//W3C//DTD SVG 20010904//EN"
 "http://www.w3.org/TR/2001/REC-SVG-20010904/DTD/svg10.dtd">
<svg version="1.0" xmlns="http://www.w3.org/2000/svg"
 width="700.000000pt" height="700.000000pt" viewBox="0 0 700.000000 700.000000"
 preserveAspectRatio="xMidYMid meet">
<metadata>
Created by potrace 1.14, written by Peter Selinger 2001-2017
</metadata>
<g transform="translate(0.000000,700.000000) scale(0.100000,-0.100000)"
fill="#000000" stroke="none">
<path d="M57 6596 c32 -41 81 -104 108 -140 28 -37 68 -90 91 -119 22 -29 97
-126 166 -217 278 -366 659 -866 671 -880 7 -8 23 -31 37 -50 14 -19 32 -44
42 -55 9 -11 122 -159 252 -330 130 -170 269 -353 309 -405 170 -222 561 -735
648 -850 51 -69 96 -127 99 -130 16 -15 160 -210 160 -216 0 -6 -70 -92 -105
-130 -5 -6 -35 -39 -65 -74 -30 -35 -66 -76 -80 -91 -14 -15 -41 -46 -62 -70
-20 -24 -44 -53 -55 -65 -10 -12 -43 -49 -73 -84 -30 -34 -59 -68 -65 -74 -5
-6 -39 -45 -75 -86 -36 -41 -67 -77 -71 -80 -6 -6 -345 -395 -369 -424 -8 -10
-22 -26 -30 -35 -9 -9 -45 -50 -80 -91 -36 -41 -67 -77 -70 -80 -3 -3 -36 -41
-74 -85 -38 -44 -95 -109 -126 -145 -32 -36 -126 -144 -210 -240 -84 -96 -175
-202 -204 -234 -28 -33 -55 -64 -61 -70 -5 -6 -39 -45 -75 -86 -36 -41 -67
-77 -70 -80 -3 -3 -30 -34 -60 -69 -30 -36 -62 -72 -70 -81 -8 -9 -42 -47 -75
-85 -33 -38 -80 -92 -105 -120 -118 -134 -155 -178 -158 -186 -4 -10 -24 -10
473 -10 641 0 581 -2 607 24 13 12 50 54 82 92 33 39 64 75 70 80 6 6 24 26
40 45 16 19 55 64 86 100 32 36 95 108 140 160 46 52 107 122 136 155 29 33
61 69 71 81 40 47 134 154 242 278 63 72 139 160 170 195 31 36 63 72 71 81 8
9 42 47 75 85 33 39 74 86 91 105 17 19 82 94 144 165 62 72 137 157 166 190
29 33 62 71 74 85 224 261 259 297 268 284 4 -6 84 -111 177 -233 94 -123 232
-304 308 -404 76 -100 149 -195 162 -212 80 -104 460 -602 487 -640 4 -5 18
-23 31 -40 49 -62 326 -425 417 -547 l95 -127 115 -1 c96 -1 1706 -1 1967 0
l82 0 -141 188 c-78 103 -179 237 -225 297 -45 61 -86 115 -91 120 -4 6 -69
91 -142 190 -74 99 -137 182 -141 185 -3 3 -61 79 -129 170 -196 262 -395 526
-433 575 -13 17 -169 224 -347 460 -360 478 -382 507 -416 550 -12 17 -72 95
-131 175 -60 80 -207 276 -327 435 -121 160 -223 295 -227 300 -4 6 8 28 28
50 19 22 45 51 56 65 45 52 223 256 253 290 31 34 276 316 378 434 28 32 58
66 66 75 9 9 45 50 80 91 60 69 111 127 135 154 6 6 35 40 65 76 30 36 60 70
66 75 5 6 39 44 75 85 35 41 66 77 69 80 5 4 35 39 161 185 10 11 27 31 39 45
12 14 36 41 53 60 18 19 75 85 127 145 51 61 101 117 109 126 9 9 39 42 66 74
68 80 339 392 379 435 17 19 53 61 80 93 l48 57 -535 0 -535 0 -50 -57 c-28
-32 -61 -69 -73 -83 -12 -14 -60 -70 -108 -125 -47 -55 -91 -104 -97 -110 -6
-5 -84 -95 -175 -200 -90 -104 -166 -192 -169 -195 -3 -3 -34 -39 -70 -80 -36
-41 -67 -77 -70 -80 -3 -3 -34 -39 -69 -80 -36 -41 -70 -80 -75 -85 -6 -6 -36
-39 -66 -75 -30 -36 -57 -67 -61 -70 -3 -3 -82 -93 -174 -200 -93 -107 -172
-197 -175 -200 -3 -3 -34 -39 -70 -80 -35 -41 -71 -82 -80 -91 -8 -9 -35 -39
-59 -68 -99 -118 -130 -147 -140 -131 -5 8 -87 119 -183 245 -95 127 -270 358
-388 515 -118 157 -217 287 -220 290 -3 3 -167 220 -364 483 l-359 477 -1109
0 -1108 0 57 -74z m1938 -673 c55 -74 105 -140 110 -147 6 -6 196 -256 421
-556 645 -856 674 -894 687 -910 7 -8 52 -69 102 -135 101 -136 97 -130 128
-170 13 -16 190 -250 392 -520 203 -269 373 -494 377 -500 10 -12 54 -70 85
-111 49 -65 474 -630 587 -779 66 -88 126 -167 133 -175 7 -8 42 -55 79 -105
59 -79 602 -800 627 -832 7 -10 -57 -12 -290 -12 l-298 0 -65 87 c-61 82 -275
362 -325 427 -13 17 -51 66 -84 110 -33 44 -64 85 -68 90 -5 6 -51 66 -103
135 -52 69 -97 127 -100 130 -3 3 -17 21 -30 40 -13 19 -27 37 -30 40 -3 3
-45 57 -93 120 -109 144 -330 435 -361 475 -45 57 -681 892 -701 919 -11 16
-25 33 -30 40 -6 6 -46 58 -90 116 -44 58 -84 110 -90 116 -5 7 -19 24 -30 40
-11 15 -56 75 -101 133 -183 241 -282 371 -351 461 -40 52 -124 163 -187 245
-106 139 -170 224 -402 527 -49 64 -156 205 -239 313 -82 108 -206 270 -274
358 l-123 162 63 5 c35 3 179 4 319 2 l255 -3 100 -136z"/>
</g>
</svg>
